<svg width="38" height="38" viewBox="0 0 38 38" fill="none" xmlns="http://www.w3.org/2000/svg">
<path d="M19.0222 32.7211C26.5974 32.7211 32.7382 26.5802 32.7382 19.0051C32.7382 11.4299 26.5974 5.28906 19.0222 5.28906C11.4471 5.28906 5.30621 11.4299 5.30621 19.0051C5.30621 26.5802 11.4471 32.7211 19.0222 32.7211Z" fill="#FFE982"/>
<path d="M14.5211 1.56812C22.6485 -0.520147 31.1406 3.28499 34.9917 10.7406C38.8427 18.1962 37.0309 27.3238 30.6241 32.7431C24.2173 38.1624 14.9158 38.4354 8.2022 33.4011C1.48865 28.3668 -0.855332 19.3612 2.55191 11.6926" stroke="#00365C" stroke-width="2" stroke-linecap="round" stroke-linejoin="round"/>
<path d="M8.22223 5.00698C8.39623 4.86298 8.57023 4.73098 8.75623 4.60498" stroke="#00365C" stroke-width="2" stroke-linecap="round" stroke-linejoin="round"/>
<path d="M19.0222 5.28906V7.16106" stroke="#F278AB" stroke-width="2" stroke-linecap="round" stroke-linejoin="round"/>
<path d="M5.30621 19.0051H7.17821" stroke="#F278AB" stroke-width="2" stroke-linecap="round" stroke-linejoin="round"/>
<path d="M19.0222 32.7211V30.8491" stroke="#F278AB" stroke-width="2" stroke-linecap="round" stroke-linejoin="round"/>
<path d="M32.7382 19.0051H30.8662" stroke="#F278AB" stroke-width="2" stroke-linecap="round" stroke-linejoin="round"/>
<path d="M27.9622 24.0809L19.0222 19.0049L17.1502 12.5369" stroke="#00365C" stroke-width="2" stroke-linecap="round" stroke-linejoin="round"/>
</svg>
